<svg version="1.1" viewBox="0 0 356.29 356.29" xmlns="http://www.w3.org/2000/svg"><defs><style>.cls-1{fill:url(#linear-gradient);}.cls-2{fill:url(#linear-gradient-2);}.cls-3{fill:url(#linear-gradient-3);}</style><linearGradient id="linear-gradient" x1="47.72" x2="219.49" y1="235.96" y2="31.26" gradientUnits="userSpaceOnUse"><stop stop-color="#ffba00" offset="0"/><stop stop-color="#ffd666" offset="1"/></linearGradient><linearGradient id="linear-gradient-2" x1="139.42" x2="139.42" y1="83.06" y2="207.1" gradientUnits="userSpaceOnUse"><stop stop-color="#ff9ddb" offset="0"/><stop stop-color="#ffc8ff" offset="1"/></linearGradient><linearGradient id="linear-gradient-3" x1="127.8" x2="127.8" y1="207.1" y2="83.06" gradientUnits="userSpaceOnUse"><stop stop-color="#ffbf00" offset="0"/><stop stop-color="#ff65ac" offset="1"/></linearGradient><linearGradient id="linearGradient28" x2="1" gradientTransform="matrix(171.77 204.7 204.7 -171.77 885.56 762.51)" gradientUnits="userSpaceOnUse"><stop stop-color="#ffba00" offset="0"/><stop stop-color="#ffd666" offset="1"/></linearGradient><clipPath id="clipPath38"><path d="m0 1080h1920v-1080h-1920z"/></clipPath></defs><g transform="translate(44.534 44.535)" data-name="Layer 2"><g data-name="Layer 1"><g transform="matrix(1.3333 0 0 -1.3333 -1161.6 1286.8)"><path d="m837.83 864.87c0-73.789 59.818-133.61 133.61-133.61 73.789 0 133.61 59.819 133.61 133.61 0 73.79-59.818 133.61-133.61 133.61-73.791 0-133.61-59.819-133.61-133.61" fill="url(#linearGradient28)"/></g><g transform="matrix(1.3333 0 0 -1.3333 -687.66 1057.4)"><g clip-path="url(#clipPath38)"><g transform="translate(734.58 692.86)"><path d="m0 0c0-65.513-53.108-118.62-118.62-118.62-65.512 0-118.62 53.109-118.62 118.62s53.109 118.62 118.62 118.62c65.514 0 118.62-53.109 118.62-118.62"/></g><g transform="translate(702.53 743.41)"><path d="m0 0-61.482-124.04h-38.536l-32.649 65.829-6.248 12.599-17.825 35.909-4.799 9.702h40.773l4.618-9.702 17.127-35.909 5.989-12.599 6.791-14.229 5.252-11.021h1.138l3.402 7.153 36.22 76.307z" fill="#ffdc73"/></g><g transform="translate(690.92 743.41)"><path d="m0 0-61.496-124.04h-38.535l-32.649 65.842-6.248 12.586-17.812 35.909-4.799 9.702h40.76l4.618-9.702 17.126-35.909 6.003-12.586 12.03-25.263h1.138l3.402 7.166 1.837 3.855 34.383 72.439z" fill="#ffbf00"/></g></g></g></g></g></svg>
