<svg version="1.1" viewBox="0 0 356.29 356.29" xmlns="http://www.w3.org/2000/svg"><defs><style>.cls-1{fill:url(#linear-gradient);}.cls-2{fill:url(#linear-gradient-2);}.cls-3{fill:url(#linear-gradient-3);}</style><linearGradient id="linear-gradient" x1="47.72" x2="219.49" y1="235.96" y2="31.26" gradientUnits="userSpaceOnUse"><stop stop-color="#ffba00" offset="0"/><stop stop-color="#ffd666" offset="1"/></linearGradient><linearGradient id="linear-gradient-2" x1="139.42" x2="139.42" y1="83.06" y2="207.1" gradientUnits="userSpaceOnUse"><stop stop-color="#ff9ddb" offset="0"/><stop stop-color="#ffc8ff" offset="1"/></linearGradient><linearGradient id="linear-gradient-3" x1="127.8" x2="127.8" y1="207.1" y2="83.06" gradientUnits="userSpaceOnUse"><stop stop-color="#ffbf00" offset="0"/><stop stop-color="#ff65ac" offset="1"/></linearGradient></defs><g transform="translate(44.534 44.534)" data-name="Layer 2"><g data-name="Layer 1"><g transform="matrix(1.3333 0 0 -1.3333 -687.66 649.13)"><g transform="translate(734.58 386.64)" fill="none"><path d="m0 0c0-65.514-53.108-118.62-118.62-118.62s-118.62 53.108-118.62 118.62c0 65.513 53.109 118.62 118.62 118.62 65.514 0 118.62-53.108 118.62-118.62" fill="none"/></g><g transform="translate(693.45 458.09)"><path d="m0 0-55.041-111.05h-34.473l-29.196 58.896-5.601 11.254-15.924 32.131-4.359 8.771h36.478l4.178-8.771 15.316-32.131 5.369-11.254 6.066-12.729 4.696-9.87h1.022l3.039 6.403 32.456 68.352z" fill="#ffdc73"/></g><g transform="translate(683.05 458.09)"><path d="m0 0-55.041-111.05h-34.473l-29.195 58.896-5.602 11.266-15.923 32.119-4.347 8.771h36.465l4.178-8.771 15.316-32.119 5.369-11.266 10.762-22.599h1.022l3.04 6.416 1.642 3.454 30.813 64.885z" fill="#ffbf00"/></g><g transform="translate(572.36 329.91)"><path d="m0 0-6.087-12.819-0.55-1.159h-0.183l-1.946 4.083-0.969 2.036-2.769 5.804-0.97 2.035-9e-3 0.02h-6.598l0.01-0.02 1.008-2.035 2.879-5.804 1.01-2.036 5.277-10.642h6.229l10.182 20.537z" fill="#ffdc73"/></g><g transform="translate(616.33 324.65)"><path d="m0 0h-6.673v-15.272h-4.799v15.272h-6.694v5.264h18.166z" fill="#ffdc73"/></g><g transform="translate(638.63 329.91)"><path d="m0 0v-20.536h-4.799v7.938h-8.947v-7.938h-4.798v20.536h4.798v-7.535h8.947v7.535z" fill="#ffdc73"/></g><g transform="translate(647.19 322.06)"><path d="m0 0h10.988v-4.344h-10.988v-3.624h11.683v-4.717h-16.482v20.537h16.25v-4.688h-11.451z" fill="#ffdc73"/></g><g transform="translate(675.41 321.14)"><path d="m0 0c0.273 0.346 0.41 0.873 0.41 1.582s-0.137 1.231-0.41 1.567c-0.274 0.336-0.72 0.504-1.337 0.504h-6.841v-4.171h6.841c0.617 0 1.063 0.173 1.337 0.518m6.094-11.764h-5.578l-2.884 6.587h-5.81v-6.587h-4.799v20.536h12.798c2.076 0 3.578-0.555 4.505-1.668 0.926-1.112 1.389-2.809 1.389-5.09 0-1.745-0.281-3.064-0.842-3.955-0.561-0.892-1.361-1.51-2.4-1.856v-0.229z" fill="#ffdc73"/></g><g transform="translate(594.32 314.09)"><path d="m0 0h-14.18l1.801 3.624h11.685v4.344h-9.528l1.571 3.164h8.42v4.687h-11.451l-2.565-5.163-1.969-3.969-2.363-4.756-1.721-3.465-1.58-3.184h5.357l1e-3 1e-3h16.522z" fill="#ffdc73"/></g><g transform="translate(570.48 329.91)"><path d="m0 0-6.086-12.82-0.55-1.158h-0.184l-1.946 4.082-0.969 2.037-2.769 5.804-0.969 2.035-0.01 0.02h-6.598l0.01-0.02 1.008-2.035 2.879-5.804 1.011-2.037 5.276-10.641h6.229l10.182 20.537z" fill="#ffbf00"/></g><g transform="translate(614.45 324.65)"><path d="m0 0h-6.672v-15.272h-4.8v15.272h-6.694v5.264h18.166z" fill="#ffbf00"/></g><g transform="translate(636.75 329.91)"><path d="m0 0v-20.536h-4.799v7.938h-8.946v-7.938h-4.799v20.536h4.799v-7.535h8.946v7.535z" fill="#ffbf00"/></g><g transform="translate(645.31 322.06)"><path d="m0 0h10.988v-4.344h-10.988v-3.624h11.683v-4.717h-16.482v20.537h16.25v-4.688h-11.451z" fill="#ffbf00"/></g><g transform="translate(673.53 321.14)"><path d="m0 0c0.274 0.346 0.411 0.873 0.411 1.582s-0.137 1.231-0.411 1.567c-0.273 0.336-0.719 0.504-1.336 0.504h-6.842v-4.171h6.842c0.617 0 1.063 0.173 1.336 0.518m6.094-11.764h-5.578l-2.884 6.587h-5.81v-6.587h-4.799v20.536h12.798c2.077 0 3.578-0.555 4.505-1.668 0.926-1.112 1.389-2.809 1.389-5.09 0-1.745-0.281-3.064-0.842-3.955-0.561-0.892-1.361-1.51-2.399-1.856v-0.229z" fill="#ffbf00"/></g><g transform="translate(592.44 314.09)"><path d="m0 0h-14.18l1.8 3.624h11.685v4.344h-9.528l1.572 3.164h8.42v4.687h-11.452l-2.565-5.163-1.969-3.969-2.362-4.756-1.721-3.465-1.58-3.184h5.357v1e-3h16.523z" fill="#ffbf00"/></g></g></g></g></svg>
