<svg version="1.1" viewBox="0 0 815.36 127.84" xmlns="http://www.w3.org/2000/svg"><defs><clipPath id="clipPath78"><path d="m0 1080h1920v-1080h-1920z"/></clipPath><filter id="filter1546" x="-.00050315" y="-.00053605" width="1.001" height="1.0011" color-interpolation-filters="sRGB"><feGaussianBlur stdDeviation="0.02139262"/></filter><filter id="filter1550" x="-.00057727" y="-.00053606" width="1.0012" height="1.0011" color-interpolation-filters="sRGB"><feGaussianBlur stdDeviation="0.02139262"/></filter><filter id="filter1554" x="-.00066796" y="-.00053606" width="1.0013" height="1.0011" color-interpolation-filters="sRGB"><feGaussianBlur stdDeviation="0.02139262"/></filter><filter id="filter1558" x="-.00059366" y="-.00053606" width="1.0012" height="1.0011" color-interpolation-filters="sRGB"><feGaussianBlur stdDeviation="0.02139262"/></filter><filter id="filter1562" x="-.00060604" y="-.00053606" width="1.0012" height="1.0011" color-interpolation-filters="sRGB"><feGaussianBlur stdDeviation="0.02139262"/></filter><filter id="filter1566" x="-.00041396" y="-.00053606" width="1.0008" height="1.0011" color-interpolation-filters="sRGB"><feGaussianBlur stdDeviation="0.02139262"/></filter><filter id="filter1570" x="-.00050315" y="-.00053605" width="1.001" height="1.0011" color-interpolation-filters="sRGB"><feGaussianBlur stdDeviation="0.02139262"/></filter><filter id="filter1574" x="-.00057727" y="-.00053606" width="1.0012" height="1.0011" color-interpolation-filters="sRGB"><feGaussianBlur stdDeviation="0.02139262"/></filter><filter id="filter1578" x="-.00066796" y="-.00053606" width="1.0013" height="1.0011" color-interpolation-filters="sRGB"><feGaussianBlur stdDeviation="0.02139262"/></filter><filter id="filter1582" x="-.00059366" y="-.00053606" width="1.0012" height="1.0011" color-interpolation-filters="sRGB"><feGaussianBlur stdDeviation="0.02139262"/></filter><filter id="filter1586" x="-.00060604" y="-.00053606" width="1.0012" height="1.0011" color-interpolation-filters="sRGB"><feGaussianBlur stdDeviation="0.02139262"/></filter><filter id="filter1590" x="-.00041396" y="-.00053606" width="1.0008" height="1.0011" color-interpolation-filters="sRGB"><feGaussianBlur stdDeviation="0.02139262"/></filter></defs><g transform="matrix(1.3333 0 0 -1.3333 -964.93 748.61)"><g clip-path="url(#clipPath78)"><g transform="translate(-102.85 -6.7374)"><g transform="translate(929.02 568.14)" filter="url(#filter1590)"><path d="m0 0-28.386-59.787-2.564-5.398h-0.855l-9.076 19.04-4.521 9.492-12.911 27.071-4.521 9.492-0.045 0.09h-30.771l0.045-0.09 4.701-9.492 13.428-27.071 4.712-9.492 24.608-49.632h29.05l47.484 95.777z" fill="#ffdc73"/></g><g transform="translate(1134.1 543.59)" filter="url(#filter1586)"><path d="m0 0h-31.117v-71.229h-22.383v71.229h-31.218v24.548h84.718z" fill="#ffdc73"/></g><g transform="translate(1238.1 568.14)" filter="url(#filter1582)"><path d="m0 0v-95.777h-22.382v37.024h-41.722v-37.024h-22.381v95.777h22.381v-35.144h41.722v35.144z" fill="#ffdc73"/></g><g transform="translate(1278 531.52)" filter="url(#filter1578)"><path d="m0 0h51.243v-20.256h-51.243v-16.902h54.482v-21.999h-76.864v95.777h75.785v-21.865h-53.403z" fill="#ffdc73"/></g><g transform="translate(1409.6 527.23)" filter="url(#filter1574)"><path d="m0 0c1.275 1.609 1.914 4.068 1.914 7.378 0 3.307-0.639 5.744-1.914 7.31-1.276 1.564-3.355 2.348-6.234 2.348h-31.905v-19.45h31.905c2.879 0 4.958 0.804 6.234 2.414m28.419-54.864h-26.015l-13.448 30.718h-27.095v-30.718h-22.382v95.777h59.686c9.685 0 16.689-2.595 21.008-7.781 4.319-5.187 6.478-13.102 6.478-23.742 0-8.139-1.308-14.286-3.925-18.445-2.619-4.158-6.349-7.043-11.192-8.652v-1.072z" fill="#ffdc73"/></g><g transform="translate(1031.4 494.36)" filter="url(#filter1570)"><path d="m0 0h-66.13l8.396 16.902h54.495v20.256h-44.435l7.328 14.755h39.266v21.865h-53.402v-2e-3l-11.962-24.081-9.184-18.508-11.017-22.182-8.027-16.16-7.37-14.846h24.985l1e-3 2e-3h77.056z" fill="#ffdc73"/></g><g transform="translate(920.25 568.14)" filter="url(#filter1566)"><path d="m0 0-28.386-59.788-2.564-5.398h-0.855l-9.076 19.041-4.521 9.492-12.911 27.07-4.521 9.493-0.045 0.09h-30.771l0.045-0.09 4.701-9.493 13.428-27.07 4.712-9.492 24.608-49.632h29.05l47.484 95.777z" fill="#ffbf00"/></g><g transform="translate(1125.3 543.59)" filter="url(#filter1562)"><path d="m0 0h-31.117v-71.229h-22.383v71.229h-31.218v24.548h84.718z" fill="#ffbf00"/></g><g transform="translate(1229.3 568.14)" filter="url(#filter1558)"><path d="m0 0v-95.777h-22.382v37.024h-41.722v-37.024h-22.381v95.777h22.381v-35.144h41.722v35.144z" fill="#ffbf00"/></g><g transform="translate(1269.2 531.52)" filter="url(#filter1554)"><path d="m0 0h51.243v-20.256h-51.243v-16.902h54.482v-21.999h-76.864v95.777h75.785v-21.865h-53.403z" fill="#ffbf00"/></g><g transform="translate(1400.8 527.23)" filter="url(#filter1550)"><path d="m0 0c1.275 1.609 1.914 4.068 1.914 7.378 0 3.307-0.639 5.744-1.914 7.31-1.276 1.564-3.355 2.348-6.234 2.348h-31.905v-19.45h31.905c2.879 0 4.958 0.804 6.234 2.414m28.419-54.864h-26.015l-13.448 30.718h-27.095v-30.718h-22.382v95.777h59.686c9.685 0 16.689-2.595 21.008-7.781 4.319-5.187 6.478-13.102 6.478-23.742 0-8.139-1.308-14.286-3.925-18.445-2.619-4.158-6.349-7.043-11.192-8.652v-1.072z" fill="#ffbf00"/></g><g transform="translate(1022.7 494.36)" filter="url(#filter1546)"><path d="m0 0h-66.129l8.395 16.902h54.495v20.256h-44.435l7.328 14.755h39.266v21.865h-53.402v-2e-3l-11.962-24.081-9.184-18.508-11.017-22.182-8.027-16.16-7.37-14.846h24.985l1e-3 2e-3h77.056z" fill="#ffbf00"/></g></g></g></g></svg>
