<svg xmlns="http://www.w3.org/2000/svg" xmlns:xlink="http://www.w3.org/1999/xlink" viewBox="0 0 267 267"><defs><style>.cls-1{fill:url(#linear-gradient);}.Graphic-Style-5{fill:url(#linear-gradient-2);}.Graphic-Style-4{fill:url(#linear-gradient-3);}</style><linearGradient id="linear-gradient" x1="231.14" y1="42.45" x2="35.86" y2="224.55" gradientUnits="userSpaceOnUse"><stop offset="0.42" stop-color="#dab6c2"/><stop offset="1" stop-color="#b8a0aa"/></linearGradient><linearGradient id="linear-gradient-2" x1="140.35" y1="82" x2="140.35" y2="207" gradientUnits="userSpaceOnUse"><stop offset="0.42" stop-color="#dab6c2"/><stop offset="1" stop-color="#9885b2"/></linearGradient><linearGradient id="linear-gradient-3" x1="128.99" y1="207" x2="128.99" y2="82" gradientUnits="userSpaceOnUse"><stop offset="0.42" stop-color="#dab6c2"/><stop offset="1" stop-color="#6a3a4f"/></linearGradient></defs><g id="Layer_2" data-name="Layer 2"><g id="Layer_1-2" data-name="Layer 1"><circle class="cls-1" cx="133.5" cy="133.5" r="133.5"/><circle cx="134" cy="133" r="121"/><path class="Graphic-Style-5" d="M98.84,83.11,98.78,83H60.25l0,.11L66.19,95H104.5ZM181,82l-37,78-3.34,7h-1l-11.77-24.69L122,130H82.94l6.14,12.36,32,64.64h37.36l62-125Zm-65,37-5.73-12H71.86l6,12Z"/><path class="Graphic-Style-4" d="M87.48,83.11,87.42,83H48.89l0,.11L54.83,95H93.14ZM169.63,82l-37,78-3.34,7h-1l-11.77-24.69L110.65,130H71.58l6.14,12.36,32,64.64h37.36l62-125Zm-65,37L98.9,107H60.5l6,12Z"/></g></g></svg>