<svg version="1.1" viewBox="0 0 267.22 267.22" xmlns="http://www.w3.org/2000/svg" xmlns:xlink="http://www.w3.org/1999/xlink"><defs><style>.cls-1{fill:url(#linear-gradient);}.cls-2{fill:url(#linear-gradient-2);}.cls-3{fill:url(#linear-gradient-3);}.cls-4{fill:url(#linear-gradient-4);}.cls-5{fill:url(#linear-gradient-5);}.cls-6{fill:url(#linear-gradient-6);}.cls-7{fill:url(#linear-gradient-7);}.cls-8{fill:url(#linear-gradient-8);}.cls-9{fill:url(#linear-gradient-9);}.cls-10{fill:url(#linear-gradient-10);}.cls-11{fill:url(#linear-gradient-11);}.cls-12{fill:url(#linear-gradient-12);}.cls-13{fill:url(#linear-gradient-13);}</style><linearGradient id="linear-gradient" x1="231.32" x2="35.89" y1="42.49" y2="224.73" gradientUnits="userSpaceOnUse"><stop stop-color="#ffc8ff" offset="0"/><stop stop-color="#ff9ddb" offset="1"/></linearGradient><linearGradient id="linear-gradient-2" x1="138.69" x2="138.69" y1="62.16" y2="173.21" gradientUnits="userSpaceOnUse"><stop stop-color="#26a4fe" offset=".42"/><stop stop-color="#38e9fd" offset="1"/></linearGradient><linearGradient id="linear-gradient-3" x1="128.53" x2="128.53" y1="173.21" y2="62.16" gradientUnits="userSpaceOnUse"><stop stop-color="#ff9ddb" offset=".3"/><stop stop-color="#ffc8ff" offset="1"/></linearGradient><linearGradient id="linear-gradient-4" x1="111.73" x2="111.73" y1="190.36" y2="210.88" xlink:href="#linear-gradient-2"/><linearGradient id="linear-gradient-5" x1="95.06" x2="95.06" y1="190.36" y2="210.88" xlink:href="#linear-gradient-2"/><linearGradient id="linear-gradient-6" x1="134.7" x2="134.7" y1="190.36" y2="210.88" xlink:href="#linear-gradient-2"/><linearGradient id="linear-gradient-7" x1="156.11" x2="156.11" y1="190.36" y2="210.88" xlink:href="#linear-gradient-2"/><linearGradient id="linear-gradient-8" x1="177.79" x2="177.79" y1="190.36" y2="210.88" xlink:href="#linear-gradient-2"/><linearGradient id="linear-gradient-9" x1="109.85" x2="109.85" y1="210.88" y2="190.36" xlink:href="#linear-gradient-3"/><linearGradient id="linear-gradient-10" x1="93.19" x2="93.19" y1="210.88" y2="190.36" xlink:href="#linear-gradient-3"/><linearGradient id="linear-gradient-11" x1="132.82" x2="132.82" y1="210.88" y2="190.36" xlink:href="#linear-gradient-3"/><linearGradient id="linear-gradient-12" x1="154.23" x2="154.23" y1="210.88" y2="190.36" xlink:href="#linear-gradient-3"/><linearGradient id="linear-gradient-13" x1="175.91" x2="175.91" y1="210.88" y2="190.36" xlink:href="#linear-gradient-3"/></defs><g data-name="Layer 2"><g data-name="Layer 1"><circle class="cls-1" cx="133.61" cy="133.61" r="133.61"/><circle cx="133.61" cy="133.61" r="118.62"/><path class="cls-2" d="M102.52,62.26l-.06-.1H66.79l0,.1,5.45,11h35.47Zm72.85-.1-32.91,69.32-3,6.26h-1L128,115.66l-5.24-11H87.86l5.46,11,28.53,57.55h33.69l55.05-111ZM117.86,94.47l-5.25-11H77.35l5.46,11Z"/><path class="cls-3" d="M92.35,62.26l0-.1H56.62l.06.1,5.45,11H97.6Zm72.86-.1L132.3,131.48l-3,6.26h-1l-10.52-22.08-5.24-11H77.7l5.46,11,28.53,57.55h33.69l55.05-111ZM107.7,94.47l-5.25-11H67.19l5.46,11Z"/><path class="cls-4" d="m112.11 190.36-10.18 20.52h4.94l1.88-4h8.3v4h4.47v-20.52zm4.94 12h-6.21l3.51-7.53h2.7z"/><path class="cls-5" d="m88.38 190.38h-6.6l1 2h6.56zm13.46 0-6.08 12.81-0.55 1.15h-0.21l-2-4.08-1-2h-6.33l1 2 5.33 10.62h6.23l10.17-20.52zm-10.63 6-1-2h-6.48l1 2z"/><path class="cls-6" d="m142 192.77q2.1 2.41 2.1 7.85c0 3.64-0.7 6.26-2.08 7.86s-3.5 2.4-6.34 2.4h-10.41v-20.52h10.43q4.23 0 6.3 2.41zm-12 2.62v10.46h4.54a4 4 0 0 0 3.19-1.24 8.06 8.06 0 0 0 0-8 4 4 0 0 0-3.19-1.23z"/><polygon class="cls-7" points="152.67 198.2 163.65 198.2 163.65 202.54 152.67 202.54 152.67 206.16 164.34 206.16 164.34 210.88 147.87 210.88 147.87 190.36 164.11 190.36 164.11 195.04 152.67 195.04"/><path class="cls-8" d="M187.32,210.88h-5.58l-2.88-6.58h-5.8v6.58h-4.8V190.36h12.79c2.07,0,3.58.55,4.5,1.66a7.83,7.83,0,0,1,1.39,5.09,7.49,7.49,0,0,1-.84,3.95,4.4,4.4,0,0,1-2.4,1.86v.23Zm-6.09-11.76a2.53,2.53,0,0,0,.41-1.58,2.45,2.45,0,0,0-.41-1.56,1.62,1.62,0,0,0-1.34-.51h-6.83v4.17h6.83A1.59,1.59,0,0,0,181.23,199.12Z"/><path class="cls-9" d="M110.23,190.36l-10.17,20.52H105l1.88-4h8.3v4h4.47V190.36Zm4.94,12H109l3.51-7.53h2.7Z"/><path class="cls-10" d="m86.5 190.38h-6.6l1 2h6.55zm13.46 0-6.08 12.81-0.55 1.15h-0.18l-2-4.08-1-2h-6.36l1 2 5.27 10.64h6.24l10.17-20.52zm-10.62 6-1-2h-6.49l1 2z"/><path class="cls-11" d="m140.15 192.77q2.08 2.41 2.09 7.85t-2.08 7.86q-2.08 2.4-6.33 2.4h-10.43v-20.52h10.43c2.82 0 4.92 0.8 6.32 2.41zm-12 2.62v10.46h4.54a4 4 0 0 0 3.19-1.24 8.06 8.06 0 0 0 0-8 4 4 0 0 0-3.19-1.23z"/><polygon class="cls-12" points="150.79 198.2 161.77 198.2 161.77 202.54 150.79 202.54 150.79 206.16 162.46 206.16 162.46 210.88 146 210.88 146 190.36 162.23 190.36 162.23 195.04 150.79 195.04"/><path class="cls-13" d="M185.44,210.88h-5.57L177,204.3h-5.8v6.58h-4.8V190.36h12.79q3.12,0,4.5,1.66a7.83,7.83,0,0,1,1.39,5.09,7.49,7.49,0,0,1-.84,3.95,4.4,4.4,0,0,1-2.4,1.86v.23Zm-6.09-11.76a2.53,2.53,0,0,0,.41-1.58,2.45,2.45,0,0,0-.41-1.56,1.61,1.61,0,0,0-1.33-.51h-6.84v4.17H178A1.58,1.58,0,0,0,179.35,199.12Z"/></g></g></svg>
