<svg version="1.1" viewBox="0 0 267.22 267.22" xmlns="http://www.w3.org/2000/svg"><defs><style>.cls-1{fill:url(#linear-gradient);}.cls-2{fill:url(#linear-gradient-2);}.cls-3{fill:url(#linear-gradient-3);}</style><linearGradient id="linear-gradient" x1="231.32" x2="35.89" y1="42.49" y2="224.73" gradientUnits="userSpaceOnUse"><stop stop-color="#ffc8ff" offset="0"/><stop stop-color="#ff9ddb" offset="1"/></linearGradient><linearGradient id="linear-gradient-2" x1="139.29" x2="139.29" y1="82.94" y2="207.1" gradientUnits="userSpaceOnUse"><stop stop-color="#26a4fe" offset=".42"/><stop stop-color="#38e9fd" offset="1"/></linearGradient><linearGradient id="linear-gradient-3" x1="127.93" x2="127.93" y1="207.1" y2="82.94" gradientUnits="userSpaceOnUse"><stop stop-color="#ff9ddb" offset=".3"/><stop stop-color="#ffc8ff" offset="1"/></linearGradient></defs><g data-name="Layer 2"><g data-name="Layer 1"><circle class="cls-1" cx="133.61" cy="133.61" r="133.61"/><circle cx="133.61" cy="133.61" r="118.62"/><path class="cls-2" d="M98.85,83.06l-.06-.12H58.9l.06.12,6.09,12.31h39.66Zm81.45-.12-36.8,77.51-3.32,7h-1.11L127.3,142.76l-5.86-12.3h-39l6.11,12.3,31.9,64.34h37.65L219.68,82.94ZM116,119.07l-5.88-12.32H70.71l6.11,12.32Z"/><path class="cls-3" d="M87.49,83.06l-.06-.12H47.54l.06.12,6.09,12.31H93.35Zm81.45-.12-36.8,77.51-3.32,7h-1.11l-11.77-24.69-5.86-12.3h-39l6.11,12.3,31.9,64.34h37.65L208.32,82.94Zm-64.29,36.13-5.88-12.32H59.35l6.11,12.32Z"/></g></g></svg>
