<svg version="1.1" viewBox="0 0 501.73 96" xmlns="http://www.w3.org/2000/svg" xmlns:xlink="http://www.w3.org/1999/xlink"><defs><style>.cls-1{fill:url(#linear-gradient);}.cls-2{fill:url(#linear-gradient-2);}.cls-3{fill:url(#linear-gradient-3);}.cls-4{fill:url(#linear-gradient-4);}.cls-5{fill:url(#linear-gradient-5);}.cls-6{fill:url(#linear-gradient-6);}.cls-7{fill:url(#linear-gradient-7);}.cls-8{fill:url(#linear-gradient-8);}.cls-9{fill:url(#linear-gradient-9);}.cls-10{fill:url(#linear-gradient-10);}</style><linearGradient id="linear-gradient" x1="148.88" x2="148.88" y2="96" gradientUnits="userSpaceOnUse"><stop stop-color="#26a4fe" offset=".42"/><stop stop-color="#38e9fd" offset="1"/></linearGradient><linearGradient id="linear-gradient-2" x1="71.15" x2="71.15" xlink:href="#linear-gradient"/><linearGradient id="linear-gradient-3" x1="256.94" x2="256.94" xlink:href="#linear-gradient"/><linearGradient id="linear-gradient-4" x1="356.36" x2="356.36" xlink:href="#linear-gradient"/><linearGradient id="linear-gradient-5" x1="457.3" x2="457.3" xlink:href="#linear-gradient"/><linearGradient id="linear-gradient-6" x1="139.88" x2="139.88" y1="96" gradientUnits="userSpaceOnUse"><stop stop-color="#ff9ddb" offset=".3"/><stop stop-color="#ffc8ff" offset="1"/></linearGradient><linearGradient id="linear-gradient-7" x1="62.39" x2="62.39" xlink:href="#linear-gradient-6"/><linearGradient id="linear-gradient-8" x1="247.94" x2="247.94" xlink:href="#linear-gradient-6"/><linearGradient id="linear-gradient-9" x1="347.36" x2="347.36" xlink:href="#linear-gradient-6"/><linearGradient id="linear-gradient-10" x1="448.3" x2="448.3" xlink:href="#linear-gradient-6"/></defs><g data-name="Layer 2"><g data-name="Layer 1"><path class="cls-1" d="M150.66,0,102.89,96H126l8.86-19h39V96h21V0Zm23.2,57H145l16.32-35h12.52Z"/><path class="cls-2" d="M40.92.09,40.87,0H8.76l0,.09L13.71,10H45.63ZM103.32,0,74.58,60.53,72,66h-.53L62.23,46.65,57.63,37H27.72l4.7,9.47L57,96H86L133.54,0ZM52.65,28l-4.3-9H19.55L24,28Z"/><path class="cls-3" d="M291.23,11.29Q301,22.59,301,48t-9.74,36.77Q281.55,96,261.66,96h-48.8V0h48.8Q281.45,0,291.23,11.29ZM234.86,24V73h21.28q9.94,0,14.92-5.79t5-18.71q0-12.93-5-18.71T256.14,24Z"/><polygon class="cls-4" points="339.86 37 390.86 37 390.86 57 340.86 57 340.86 74 394.86 74 394.86 96 317.86 96 317.86 0 392.86 0 392.86 22 339.86 22"/><path class="cls-5" d="m501.73 96h-26l-13.53-31h-27.34v31h-22v-96h59.64q14.52 0 21 7.8t6.5 23.8q0 12.23-3.93 18.48a20.38 20.38 0 0 1-11.18 8.68v1.07zm-29.62-54.36q1.89-2.36 1.89-7.21t-1.87-7.14c-1.26-1.52-3.29-2.29-6.13-2.29h-31.14v19h31.14q4.25 0 6.11-2.36z"/><path class="cls-6" d="M141.66,0,93.89,96H117l8.86-19h39V96h21V0Zm23.2,57H136l16.32-35h12.52Z"/><path class="cls-7" d="M32.16.09l0-.09H0L.05.09,5,10H36.88ZM94.56,0,65.82,60.53,63.23,66H62.7L53.47,46.65,48.88,37H19l4.71,9.47L48.22,96h29l47.6-96ZM43.89,28,39.6,19H10.8l4.46,9Z"/><path class="cls-8" d="M282.23,11.29Q292,22.59,292,48t-9.74,36.77Q272.55,96,252.66,96h-48.8V0h48.8Q272.45,0,282.23,11.29ZM225.86,24V73h21.28q9.95,0,14.92-5.79t5-18.71q0-12.93-5-18.71T247.14,24Z"/><polygon class="cls-9" points="331.86 37 382.86 37 382.86 57 331.86 57 331.86 74 385.86 74 385.86 96 308.86 96 308.86 0 384.86 0 384.86 22 331.86 22"/><path class="cls-10" d="m492.73 96h-25l-13.53-31h-27.34v31h-23v-96h59.64q14.52 0 21 7.8t6.5 23.8q0 12.23-3.93 18.48a20.38 20.38 0 0 1-11.18 8.68v1.07zm-28.62-54.36q1.89-2.36 1.89-7.21t-1.87-7.14c-1.26-1.52-3.29-2.29-6.13-2.29h-31.14v19h31.14q4.25 0 6.11-2.36z"/></g></g></svg>
