<svg version="1.1" viewBox="0 0 267.22 267.22" xmlns="http://www.w3.org/2000/svg" xmlns:xlink="http://www.w3.org/1999/xlink"><defs><style>.cls-1{fill:url(#linear-gradient);}.cls-2{fill:url(#linear-gradient-2);}.cls-3{fill:url(#linear-gradient-3);}.cls-4{fill:url(#linear-gradient-4);}.cls-5{fill:url(#linear-gradient-5);}</style><linearGradient id="linear-gradient" x1="246.77" x2="23.71" y1="31.53" y2="232.75" gradientUnits="userSpaceOnUse"><stop stop-color="#38e9fd" offset="0"/><stop stop-color="#26a4fe" offset="1"/></linearGradient><linearGradient id="linear-gradient-2" x1="127.51" x2="127.51" y1="82.89" y2="207.1" gradientUnits="userSpaceOnUse"><stop stop-color="#ff9ddb" offset="0"/><stop stop-color="#ffc8ff" offset="1"/></linearGradient><linearGradient id="linear-gradient-3" x1="185.54" x2="185.54" y1="106.71" y2="119.03" xlink:href="#linear-gradient-2"/><linearGradient id="linear-gradient-4" x1="197.07" x2="197.07" y1="82.89" y2="95.31" xlink:href="#linear-gradient-2"/><linearGradient id="linear-gradient-5" x1="127.93" x2="127.93" y1="207.1" y2="82.89" gradientUnits="userSpaceOnUse"><stop stop-color="#26a4fe" offset=".3"/><stop stop-color="#38e9fd" offset="1"/></linearGradient></defs><g data-name="Layer 2"><g data-name="Layer 1"><circle class="cls-1" cx="133.61" cy="133.61" r="133.61"/><circle cx="133.61" cy="133.61" r="118.62"/><polygon class="cls-2" points="157.75 130.42 196.16 130.42 158.14 207.1 120.46 207.1 88.55 142.73 82.44 130.42 65.02 95.31 58.92 83 58.86 82.89 98.78 82.89 98.84 83 104.7 95.31 121.44 130.42 127.31 142.73 139.07 167.42 140.18 167.42 143.5 160.42"/><polygon class="cls-3" points="169.02 106.71 207.91 106.71 201.81 119.03 163.16 119.03"/><polygon class="cls-4" points="219.72 82.89 213.56 95.31 174.43 95.31 180.33 82.89"/><path class="cls-5" d="M146.39,130.42h38.4l-38,76.68H109.1L77.18,142.73l-6.11-12.31L53.66,95.31,47.55,83l0-.11H87.41l.06.11,5.86,12.31,16.75,35.11,5.86,12.31,11.76,24.69h1.12l3.32-7ZM151.8,119h38.64l6.1-12.32H157.65ZM169,82.89l-5.9,12.42h39.13l6.16-12.42Z"/></g></g></svg>
