<svg version="1.1" viewBox="0 0 267.22 267.22" xmlns="http://www.w3.org/2000/svg" xmlns:xlink="http://www.w3.org/1999/xlink"><defs><style>.cls-1{fill:url(#linear-gradient);}.cls-2{fill:url(#linear-gradient-2);}.cls-3{fill:url(#linear-gradient-3);}.cls-4{fill:url(#linear-gradient-4);}.cls-5{fill:url(#linear-gradient-5);}.cls-6{fill:url(#linear-gradient-6);}.cls-7{fill:url(#linear-gradient-7);}.cls-8{fill:url(#linear-gradient-8);}.cls-9{fill:url(#linear-gradient-9);}.cls-10{fill:url(#linear-gradient-10);}.cls-11{fill:url(#linear-gradient-11);}.cls-12{fill:url(#linear-gradient-12);}.cls-13{fill:url(#linear-gradient-13);}.cls-14{fill:url(#linear-gradient-14);}.cls-15{fill:url(#linear-gradient-15);}</style><linearGradient id="linear-gradient" x1="246.77" x2="23.71" y1="31.53" y2="232.75" gradientUnits="userSpaceOnUse"><stop stop-color="#38e9fd" offset="0"/><stop stop-color="#26a4fe" offset="1"/></linearGradient><linearGradient id="linear-gradient-2" x1="128.19" x2="128.19" y1="62.14" y2="173.24" gradientUnits="userSpaceOnUse"><stop stop-color="#ff9ddb" offset="0"/><stop stop-color="#ffc8ff" offset="1"/></linearGradient><linearGradient id="linear-gradient-3" x1="180.09" x2="180.09" y1="83.45" y2="94.47" xlink:href="#linear-gradient-2"/><linearGradient id="linear-gradient-4" x1="190.41" x2="190.41" y1="62.14" y2="73.25" xlink:href="#linear-gradient-2"/><linearGradient id="linear-gradient-5" x1="128.56" x2="128.56" y1="173.24" y2="62.14" gradientUnits="userSpaceOnUse"><stop stop-color="#26a4fe" offset=".3"/><stop stop-color="#38e9fd" offset="1"/></linearGradient><linearGradient id="linear-gradient-6" x1="165.5" x2="165.5" y1="189.69" y2="210.22" xlink:href="#linear-gradient-2"/><linearGradient id="linear-gradient-7" x1="175.09" x2="175.09" y1="193.62" y2="195.66" xlink:href="#linear-gradient-2"/><linearGradient id="linear-gradient-8" x1="177" x2="177" y1="189.69" y2="191.74" xlink:href="#linear-gradient-2"/><linearGradient id="linear-gradient-9" x1="97.57" x2="97.57" y1="189.69" y2="210.88" xlink:href="#linear-gradient-2"/><linearGradient id="linear-gradient-10" x1="120.11" x2="120.11" y1="189.03" y2="210.88" xlink:href="#linear-gradient-2"/><linearGradient id="linear-gradient-11" x1="142.85" x2="142.85" y1="189.69" y2="210.22" xlink:href="#linear-gradient-2"/><linearGradient id="linear-gradient-12" x1="165.57" x2="165.57" y1="210.22" y2="189.69" xlink:href="#linear-gradient-5"/><linearGradient id="linear-gradient-13" x1="95.69" x2="95.69" y1="210.88" y2="189.69" xlink:href="#linear-gradient-5"/><linearGradient id="linear-gradient-14" x1="118.23" x2="118.23" y1="210.88" y2="189.03" xlink:href="#linear-gradient-5"/><linearGradient id="linear-gradient-15" x1="140.97" x2="140.97" y1="210.22" y2="189.69" xlink:href="#linear-gradient-5"/></defs><g data-name="Layer 2"><g data-name="Layer 1"><circle cx="133.61" cy="133.61" r="118.62" fill="none"/><polygon class="cls-2" points="155.24 104.66 189.59 104.66 155.59 173.24 121.89 173.24 93.34 115.66 87.87 104.66 72.3 73.25 66.84 62.24 66.79 62.14 102.49 62.14 102.54 62.24 107.79 73.25 122.76 104.66 128.01 115.66 138.53 137.75 139.53 137.75 142.49 131.49"/><polygon class="cls-3" points="165.31 83.45 200.1 83.45 194.64 94.47 160.08 94.47"/><polygon class="cls-4" points="210.66 62.14 205.15 73.25 170.15 73.25 175.43 62.14"/><path class="cls-5" d="m145.08 104.65h34.35l-34 68.59h-33.7l-28.55-57.58-5.47-11-15.58-31.41-5.45-11-0.06-0.1h35.71v0.1l5.24 11 15 31.4 5.24 11 10.52 22.09h1l3-6.26zm4.83-10.18h34.57l5.46-11h-34.79zm15.35-32.33-5.26 11.11h35l5.51-11.11z"/><polygon class="cls-6" points="170.5 197.54 176.85 197.54 170.56 210.22 164.34 210.22 159.06 199.58 158.05 197.54 155.18 191.74 154.17 189.71 154.16 189.69 160.75 189.69 160.76 189.71 161.73 191.74 164.5 197.54 165.47 199.58 167.41 203.66 167.6 203.66 168.15 202.5"/><polygon class="cls-7" points="172.36 193.62 178.79 193.62 177.78 195.66 171.4 195.66"/><polygon class="cls-8" points="180.74 189.69 179.72 191.74 173.26 191.74 174.23 189.69"/><path class="cls-9" d="m106.79 189.69v11.73a12.09 12.09 0 0 1-1.11 5.65 6.33 6.33 0 0 1-3.12 3 14.91 14.91 0 0 1-10 0 6.29 6.29 0 0 1-3.12-3 12.09 12.09 0 0 1-1.11-5.65v-11.73h4.8v11.61a4.26 4.26 0 0 0 1.15 3.38 5.9 5.9 0 0 0 6.54 0 4.26 4.26 0 0 0 1.18-3.38v-11.61z"/><path class="cls-10" d="M122.47,194a5.35,5.35,0,0,0-2.73-.56,5.06,5.06,0,0,0-2.56.47,1.55,1.55,0,0,0-.77,1.4,1.28,1.28,0,0,0,.47,1.09,3.36,3.36,0,0,0,1.51.49l6,.69a6,6,0,0,1,4,1.81,6.59,6.59,0,0,1,1.33,4.51,7.28,7.28,0,0,1-1.1,4.31,5.61,5.61,0,0,1-3.16,2.12,20.32,20.32,0,0,1-5.38.59,17.74,17.74,0,0,1-5.19-.63,5.81,5.81,0,0,1-3.11-2.26,8.6,8.6,0,0,1-1.19-4.62h5.56a3.16,3.16,0,0,0,1.22,2.42,5.59,5.59,0,0,0,3,.63,6,6,0,0,0,2.84-.5,1.69,1.69,0,0,0,.89-1.57,1.6,1.6,0,0,0-.51-1.31,2.72,2.72,0,0,0-1.43-.53l-5.78-.78a6.65,6.65,0,0,1-4-1.75,6.06,6.06,0,0,1-1.34-4.34c0-2.43.77-4.15,2.29-5.13S117,189,120,189s5.21.5,6.76,1.51,2.36,2.78,2.43,5.33h-5.53A2.47,2.47,0,0,0,122.47,194Z"/><path class="cls-11" d="m150.18 192.1q2.1 2.42 2.1 7.85c0 3.64-0.7 6.27-2.09 7.87s-3.5 2.4-6.33 2.4h-10.43v-20.53h10.43q4.23 0 6.32 2.41zm-12 2.62v10.46h4.55a4 4 0 0 0 3.27-1.18 8.06 8.06 0 0 0 0-8 4 4 0 0 0-3.19-1.24z"/><path class="cls-12" d="m168.62 197.54h6.38l-6.28 12.68h-6.23l-5.28-10.64-1-2-2.87-5.8-1-2h6.6l1 2 2.77 5.8 1 2 1.94 4.08h0.19l0.55-1.16zm0.9-1.88h6.38l1-2h-6.43zm2.83-6-1 2.05h6.47l1-2.05z"/><path class="cls-13" d="m104.91 189.69v11.73a12.09 12.09 0 0 1-1.11 5.65 6.29 6.29 0 0 1-3.12 3 14.91 14.91 0 0 1-10 0 6.33 6.33 0 0 1-3.12-3 12.09 12.09 0 0 1-1.11-5.65v-11.73h4.8v11.61a4.26 4.26 0 0 0 1.15 3.38 5.9 5.9 0 0 0 6.54 0 4.26 4.26 0 0 0 1.15-3.38v-11.61z"/><path class="cls-14" d="M120.59,194a5.35,5.35,0,0,0-2.73-.56,5.09,5.09,0,0,0-2.56.47,1.55,1.55,0,0,0-.77,1.4,1.28,1.28,0,0,0,.47,1.09,3.41,3.41,0,0,0,1.51.49l6,.69a6,6,0,0,1,4,1.81,6.59,6.59,0,0,1,1.33,4.51,7.28,7.28,0,0,1-1.09,4.31,5.64,5.64,0,0,1-3.17,2.12,20.27,20.27,0,0,1-5.38.59,17.66,17.66,0,0,1-5.18-.63,5.79,5.79,0,0,1-3.12-2.26,8.7,8.7,0,0,1-1.19-4.62h5.56a3.16,3.16,0,0,0,1.22,2.42,5.61,5.61,0,0,0,3,.63,6.1,6.1,0,0,0,2.84-.5,1.68,1.68,0,0,0,.88-1.57,1.6,1.6,0,0,0-.51-1.31,2.72,2.72,0,0,0-1.43-.53l-5.78-.78a6.65,6.65,0,0,1-4-1.75,6.06,6.06,0,0,1-1.34-4.34c0-2.43.77-4.15,2.3-5.13s3.77-1.48,6.73-1.48,5.21.5,6.76,1.51,2.36,2.78,2.43,5.33h-5.53A2.45,2.45,0,0,0,120.59,194Z"/><path class="cls-15" d="m148.31 192.1q2.08 2.42 2.09 7.85c0 3.64-0.69 6.27-2.08 7.87s-3.5 2.4-6.34 2.4h-10.43v-20.53h10.45q4.21 0 6.31 2.41zm-12 2.62v10.46h4.55a4 4 0 0 0 3.19-1.23 8.06 8.06 0 0 0 0-8 4 4 0 0 0-3.19-1.24z"/></g></g></svg>
