<svg version="1.1" viewBox="0 0 439.63 101.91" xmlns="http://www.w3.org/2000/svg" xmlns:xlink="http://www.w3.org/1999/xlink"><defs><style>.cls-1{fill:url(#linear-gradient);}.cls-2{fill:url(#linear-gradient-2);}.cls-3{fill:url(#linear-gradient-3);}.cls-4{fill:url(#linear-gradient-4);}.cls-5{fill:url(#linear-gradient-5);}.cls-6{fill:url(#linear-gradient-6);}.cls-7{fill:url(#linear-gradient-7);}.cls-8{fill:url(#linear-gradient-8);}.cls-9{fill:url(#linear-gradient-9);}.cls-10{fill:url(#linear-gradient-10);}</style><linearGradient id="linear-gradient" x1="368.56" x2="368.56" y1="3.08" y2="98.82" gradientUnits="userSpaceOnUse"><stop stop-color="#ff9ddb" offset="0"/><stop stop-color="#ffc8ff" offset="1"/></linearGradient><linearGradient id="linear-gradient-2" x1="413.28" x2="413.28" y1="21.44" y2="30.94" xlink:href="#linear-gradient"/><linearGradient id="linear-gradient-3" x1="422.17" x2="422.17" y1="3.08" y2="12.66" xlink:href="#linear-gradient"/><linearGradient id="linear-gradient-4" x1="51.74" x2="51.74" y1="3.08" y2="101.91" xlink:href="#linear-gradient"/><linearGradient id="linear-gradient-5" x1="156.84" x2="156.84" y2="101.91" xlink:href="#linear-gradient"/><linearGradient id="linear-gradient-6" x1="262.92" x2="262.92" y1="3.08" y2="98.82" xlink:href="#linear-gradient"/><linearGradient id="linear-gradient-7" x1="368.88" x2="368.88" y1="98.82" y2="3.08" gradientUnits="userSpaceOnUse"><stop stop-color="#26a4fe" offset=".3"/><stop stop-color="#38e9fd" offset="1"/></linearGradient><linearGradient id="linear-gradient-8" x1="42.98" x2="42.98" y1="101.91" y2="3.08" xlink:href="#linear-gradient-7"/><linearGradient id="linear-gradient-9" x1="148.08" x2="148.08" y1="101.91" xlink:href="#linear-gradient-7"/><linearGradient id="linear-gradient-10" x1="254.16" x2="254.16" y1="98.82" y2="3.08" xlink:href="#linear-gradient-7"/></defs><g data-name="Layer 2"><g data-name="Layer 1"><polygon class="cls-1" points="391.87 39.72 421.47 39.72 392.17 98.82 363.13 98.82 338.53 49.2 333.81 39.72 320.39 12.66 315.69 3.17 315.64 3.08 346.41 3.08 346.45 3.17 350.97 12.66 363.88 39.72 368.4 49.2 377.46 68.24 378.32 68.24 380.88 62.84"/><polygon class="cls-2" points="400.55 21.44 430.53 21.44 425.82 30.94 396.04 30.94"/><polygon class="cls-3" points="439.63 3.08 434.88 12.66 404.72 12.66 409.26 3.08"/><path class="cls-4" d="M94.72,3.08V57.79q0,16.63-5.15,26.35A29.24,29.24,0,0,1,75,97.88q-9.42,4-23.26,4t-23.26-4A29.24,29.24,0,0,1,13.91,84.14Q8.77,74.42,8.76,57.79V3.08H31.13V57.26q0,11.13,5.35,15.75t15.26,4.63Q61.66,77.64,67,73t5.35-15.75V3.08Z"/><path class="cls-5" d="M167.88,23q-4.41-2.62-12.76-2.62T143.2,22.59a7.19,7.19,0,0,0-3.58,6.51,5.93,5.93,0,0,0,2.16,5.09q2.16,1.62,7.06,2.28l27.87,3.22q12.36,1.47,18.55,8.45t6.18,21q0,13-5.1,20.11t-14.77,9.86q-9.67,2.75-25.07,2.75-14.82,0-24.19-3a26.62,26.62,0,0,1-14.52-10.53q-5.16-7.58-5.55-21.52h25.91q1.08,8.31,5.69,11.26c3.07,2,7.69,3,13.83,3s10.5-.78,13.25-2.34A7.83,7.83,0,0,0,175,71.47q0-4.16-2.35-6.1A12.8,12.8,0,0,0,166,62.89l-27-3.62q-12.56-1.74-18.79-8.18T114,30.84q0-17,10.69-23.93T156.1,0q20.72,0,31.55,7T199,31.91H173.18Q172.3,25.61,167.88,23Z"/><path class="cls-6" d="m297.12 14.35q9.76 11.27 9.76 36.6 0 25.49-9.71 36.68t-29.54 11.19h-48.63v-95.74h48.67q19.68 0 29.45 11.27zm-55.79 12.2v48.81h21.2q9.92 0 14.87-5.77t5-18.64q0-12.87-5-18.63t-14.87-5.77z"/><path class="cls-7" d="m383.11 39.72h29.6l-29.31 59.1h-29l-24.63-49.62-4.72-9.48-13.42-27.06-4.7-9.49-0.05-0.09h30.77v0.09l4.52 9.49 12.91 27.06 4.52 9.48 9.07 19h0.85l2.56-5.4zm4.17-8.78h29.78l4.71-9.5h-30zm13.22-27.86-4.5 9.58h30.16l4.75-9.58z"/><path class="cls-8" d="M86,3.08V57.79q0,16.63-5.15,26.35A29.24,29.24,0,0,1,66.24,97.88q-9.42,4-23.26,4t-23.26-4A29.24,29.24,0,0,1,5.15,84.14Q0,74.42,0,57.79V3.08H22.37V57.26q0,11.13,5.35,15.75T43,77.64q9.92,0,15.26-4.63t5.35-15.75V3.08Z"/><path class="cls-9" d="M159.12,23q-4.41-2.62-12.76-2.62t-11.92,2.21a7.19,7.19,0,0,0-3.58,6.51A5.93,5.93,0,0,0,133,34.19q2.16,1.62,7.06,2.28L168,39.69q12.36,1.47,18.55,8.45t6.18,21q0,13-5.1,20.11t-14.77,9.86q-9.67,2.75-25.07,2.75-14.82,0-24.19-3A26.62,26.62,0,0,1,109,88.43q-5.16-7.58-5.55-21.52h25.91q1.08,8.31,5.69,11.26t13.83,3q9.14,0,13.25-2.34a7.83,7.83,0,0,0,4.12-7.31q0-4.16-2.35-6.1a12.8,12.8,0,0,0-6.67-2.48l-27-3.62q-12.56-1.74-18.79-8.18t-6.23-20.25q0-17,10.69-23.93T147.34,0q20.72,0,31.55,7t11.34,24.87H164.42Q163.54,25.61,159.12,23Z"/><path class="cls-10" d="m288.36 14.35q9.76 11.27 9.76 36.6 0 25.49-9.71 36.68t-29.54 11.19h-48.67v-95.74h48.67q19.72 0 29.49 11.27zm-55.79 12.2v48.81h21.2q9.91 0 14.87-5.77t4.95-18.59q0-12.87-4.95-18.63t-14.87-5.77z"/></g></g></svg>
