<?xml version="1.0" encoding="UTF-8" standalone="no"?>
<svg
   xmlns:dc="http://purl.org/dc/elements/1.1/"
   xmlns:cc="http://creativecommons.org/ns#"
   xmlns:rdf="http://www.w3.org/1999/02/22-rdf-syntax-ns#"
   xmlns:svg="http://www.w3.org/2000/svg"
   xmlns="http://www.w3.org/2000/svg"
   xmlns:xlink="http://www.w3.org/1999/xlink"
   xmlns:sodipodi="http://sodipodi.sourceforge.net/DTD/sodipodi-0.dtd"
   xmlns:inkscape="http://www.inkscape.org/namespaces/inkscape"
   viewBox="0 0 267.22 267.22"
   version="1.1"
   id="svg37"
   sodipodi:docname="usdv-symbol-wo-ring.svg"
   inkscape:version="1.0.2 (e86c870879, 2021-01-15)">
  <metadata
     id="metadata41">
    <rdf:RDF>
      <cc:Work
         rdf:about="">
        <dc:format>image/svg+xml</dc:format>
        <dc:type
           rdf:resource="http://purl.org/dc/dcmitype/StillImage" />
        <dc:title></dc:title>
      </cc:Work>
    </rdf:RDF>
  </metadata>
  <sodipodi:namedview
     pagecolor="#ffffff"
     bordercolor="#666666"
     borderopacity="1"
     objecttolerance="10"
     gridtolerance="10"
     guidetolerance="10"
     inkscape:pageopacity="0"
     inkscape:pageshadow="2"
     inkscape:window-width="2560"
     inkscape:window-height="1372"
     id="namedview39"
     showgrid="false"
     inkscape:zoom="3.7721727"
     inkscape:cx="133.61"
     inkscape:cy="133.61"
     inkscape:window-x="0"
     inkscape:window-y="0"
     inkscape:window-maximized="1"
     inkscape:current-layer="Layer_1-2" />
  <defs
     id="defs21">
    <style
       id="style2">.cls-1{fill:url(#linear-gradient);}.cls-2{fill:url(#linear-gradient-2);}.cls-3{fill:url(#linear-gradient-3);}.cls-4{fill:url(#linear-gradient-4);}.cls-5{fill:url(#linear-gradient-5);}</style>
    <linearGradient
       id="linear-gradient"
       x1="246.77"
       y1="31.53"
       x2="23.71"
       y2="232.75"
       gradientUnits="userSpaceOnUse">
      <stop
         offset="0"
         stop-color="#38e9fd"
         id="stop4" />
      <stop
         offset="1"
         stop-color="#26a4fe"
         id="stop6" />
    </linearGradient>
    <linearGradient
       id="linear-gradient-2"
       x1="127.51"
       y1="82.89"
       x2="127.51"
       y2="207.1"
       gradientUnits="userSpaceOnUse">
      <stop
         offset="0"
         stop-color="#ff9ddb"
         id="stop9" />
      <stop
         offset="1"
         stop-color="#ffc8ff"
         id="stop11" />
    </linearGradient>
    <linearGradient
       id="linear-gradient-3"
       x1="185.54"
       y1="106.71"
       x2="185.54"
       y2="119.03"
       xlink:href="#linear-gradient-2" />
    <linearGradient
       id="linear-gradient-4"
       x1="197.07"
       y1="82.89"
       x2="197.07"
       y2="95.31"
       xlink:href="#linear-gradient-2" />
    <linearGradient
       id="linear-gradient-5"
       x1="127.93"
       y1="207.1"
       x2="127.93"
       y2="82.89"
       gradientUnits="userSpaceOnUse">
      <stop
         offset="0.3"
         stop-color="#26a4fe"
         id="stop16" />
      <stop
         offset="1"
         stop-color="#38e9fd"
         id="stop18" />
    </linearGradient>
  </defs>
  <g
     id="Layer_2"
     data-name="Layer 2">
    <g
       id="Layer_1-2"
       data-name="Layer 1">
      <path
         id="circle23"
         style="fill:#000000"
         d="M 133.60938 0 A 133.61 133.61 0 0 0 0 133.60938 A 133.61 133.61 0 0 0 133.60938 267.2207 A 133.61 133.61 0 0 0 267.2207 133.60938 A 133.61 133.61 0 0 0 133.60938 0 z " />
      <polygon
         class="cls-2"
         points="157.75 130.42 196.16 130.42 158.14 207.1 120.46 207.1 88.55 142.73 82.44 130.42 65.02 95.31 58.92 83 58.86 82.89 98.78 82.89 98.84 83 104.7 95.31 121.44 130.42 127.31 142.73 139.07 167.42 140.18 167.42 143.5 160.42 157.75 130.42"
         id="polygon27" />
      <polygon
         class="cls-3"
         points="169.02 106.71 207.91 106.71 201.81 119.03 163.16 119.03 169.02 106.71"
         id="polygon29" />
      <polygon
         class="cls-4"
         points="219.72 82.89 213.56 95.31 174.43 95.31 180.33 82.89 219.72 82.89"
         id="polygon31" />
      <path
         class="cls-5"
         d="M146.39,130.42h38.4l-38,76.68H109.1L77.18,142.73l-6.11-12.31L53.66,95.31,47.55,83l0-.11H87.41l.06.11,5.86,12.31,16.75,35.11,5.86,12.31,11.76,24.69h1.12l3.32-7ZM151.8,119h38.64l6.1-12.32H157.65ZM169,82.89l-5.9,12.42h39.13l6.16-12.42Z"
         id="path33" />
    </g>
  </g>
</svg>
